<mxfile host="app.diagrams.net" agent="Mozilla/5.0 (Windows NT 10.0; Win64; x64) AppleWebKit/537.36 (KHTML, like Gecko) Chrome/132.0.0.0 Safari/537.36" version="26.0.7">
  <diagram name="Page-1" id="fMWPBlB6XbLdJ0Pf5lyP">
    <mxGraphModel dx="1728" dy="902" grid="1" gridSize="10" guides="1" tooltips="1" connect="1" arrows="1" fold="1" page="1" pageScale="1" pageWidth="1654" pageHeight="1169" math="0" shadow="0">
      <root>
        <mxCell id="0" />
        <mxCell id="1" parent="0" />
        <mxCell id="y1jBoSduMsLymryLVSX6-45" value="" style="rounded=0;whiteSpace=wrap;html=1;fillColor=#f5f5f5;gradientColor=#b3b3b3;strokeColor=#666666;" vertex="1" parent="1">
          <mxGeometry x="630" y="890" width="740" height="90" as="geometry" />
        </mxCell>
        <mxCell id="y1jBoSduMsLymryLVSX6-10" value="" style="rounded=0;whiteSpace=wrap;html=1;fillColor=#f8cecc;strokeColor=#b85450;" vertex="1" parent="1">
          <mxGeometry x="670" y="270" width="550" height="320" as="geometry" />
        </mxCell>
        <mxCell id="y1jBoSduMsLymryLVSX6-11" value="Hardware Initialization" style="rounded=0;whiteSpace=wrap;html=1;strokeColor=none;fillColor=#f8cecc;" vertex="1" parent="1">
          <mxGeometry x="955" y="270" width="120" height="60" as="geometry" />
        </mxCell>
        <mxCell id="y1jBoSduMsLymryLVSX6-2" style="edgeStyle=orthogonalEdgeStyle;rounded=0;orthogonalLoop=1;jettySize=auto;html=1;" edge="1" parent="1" source="y1jBoSduMsLymryLVSX6-1" target="y1jBoSduMsLymryLVSX6-3">
          <mxGeometry relative="1" as="geometry">
            <mxPoint x="895" y="230" as="targetPoint" />
          </mxGeometry>
        </mxCell>
        <mxCell id="y1jBoSduMsLymryLVSX6-1" value="Micro-USB Port" style="rounded=0;whiteSpace=wrap;html=1;fillColor=#008a00;fontColor=#ffffff;strokeColor=#005700;" vertex="1" parent="1">
          <mxGeometry x="820" y="90" width="150" height="60" as="geometry" />
        </mxCell>
        <mxCell id="y1jBoSduMsLymryLVSX6-4" style="edgeStyle=orthogonalEdgeStyle;rounded=0;orthogonalLoop=1;jettySize=auto;html=1;" edge="1" parent="1" source="y1jBoSduMsLymryLVSX6-9" target="y1jBoSduMsLymryLVSX6-5">
          <mxGeometry relative="1" as="geometry">
            <mxPoint x="895" y="330" as="targetPoint" />
          </mxGeometry>
        </mxCell>
        <mxCell id="y1jBoSduMsLymryLVSX6-8" style="edgeStyle=orthogonalEdgeStyle;rounded=0;orthogonalLoop=1;jettySize=auto;html=1;" edge="1" parent="1" source="y1jBoSduMsLymryLVSX6-3" target="y1jBoSduMsLymryLVSX6-9">
          <mxGeometry relative="1" as="geometry">
            <mxPoint x="950" y="310" as="targetPoint" />
          </mxGeometry>
        </mxCell>
        <mxCell id="y1jBoSduMsLymryLVSX6-3" value="GPIO Interface Layer" style="rounded=0;whiteSpace=wrap;html=1;fillColor=#6a00ff;fontColor=#ffffff;strokeColor=#3700CC;" vertex="1" parent="1">
          <mxGeometry x="835" y="180" width="120" height="60" as="geometry" />
        </mxCell>
        <mxCell id="y1jBoSduMsLymryLVSX6-44" style="edgeStyle=orthogonalEdgeStyle;rounded=0;orthogonalLoop=1;jettySize=auto;html=1;" edge="1" parent="1" source="y1jBoSduMsLymryLVSX6-5" target="y1jBoSduMsLymryLVSX6-39">
          <mxGeometry relative="1" as="geometry" />
        </mxCell>
        <mxCell id="y1jBoSduMsLymryLVSX6-5" value="LED Init" style="rounded=0;whiteSpace=wrap;html=1;fillColor=#d5e8d4;gradientColor=#97d077;strokeColor=#82b366;" vertex="1" parent="1">
          <mxGeometry x="700" y="410" width="120" height="60" as="geometry" />
        </mxCell>
        <mxCell id="y1jBoSduMsLymryLVSX6-22" style="edgeStyle=orthogonalEdgeStyle;rounded=0;orthogonalLoop=1;jettySize=auto;html=1;" edge="1" parent="1" source="y1jBoSduMsLymryLVSX6-9" target="y1jBoSduMsLymryLVSX6-20">
          <mxGeometry relative="1" as="geometry" />
        </mxCell>
        <mxCell id="y1jBoSduMsLymryLVSX6-24" style="edgeStyle=orthogonalEdgeStyle;rounded=0;orthogonalLoop=1;jettySize=auto;html=1;" edge="1" parent="1" source="y1jBoSduMsLymryLVSX6-20" target="y1jBoSduMsLymryLVSX6-23">
          <mxGeometry relative="1" as="geometry" />
        </mxCell>
        <mxCell id="y1jBoSduMsLymryLVSX6-20" value="Device Descriptor" style="rounded=0;whiteSpace=wrap;html=1;fillColor=#f5f5f5;gradientColor=#b3b3b3;strokeColor=#666666;" vertex="1" parent="1">
          <mxGeometry x="1030" y="400" width="120" height="60" as="geometry" />
        </mxCell>
        <mxCell id="y1jBoSduMsLymryLVSX6-32" style="edgeStyle=orthogonalEdgeStyle;rounded=0;orthogonalLoop=1;jettySize=auto;html=1;" edge="1" parent="1" source="y1jBoSduMsLymryLVSX6-23" target="y1jBoSduMsLymryLVSX6-29">
          <mxGeometry relative="1" as="geometry" />
        </mxCell>
        <mxCell id="y1jBoSduMsLymryLVSX6-47" style="edgeStyle=orthogonalEdgeStyle;rounded=0;orthogonalLoop=1;jettySize=auto;html=1;" edge="1" parent="1" source="y1jBoSduMsLymryLVSX6-23" target="y1jBoSduMsLymryLVSX6-46">
          <mxGeometry relative="1" as="geometry" />
        </mxCell>
        <mxCell id="y1jBoSduMsLymryLVSX6-23" value="HID Composite Device" style="rounded=0;whiteSpace=wrap;html=1;fillColor=#dae8fc;strokeColor=#6c8ebf;gradientColor=#7ea6e0;" vertex="1" parent="1">
          <mxGeometry x="1030" y="500" width="120" height="60" as="geometry" />
        </mxCell>
        <mxCell id="y1jBoSduMsLymryLVSX6-25" value="" style="edgeStyle=orthogonalEdgeStyle;rounded=0;orthogonalLoop=1;jettySize=auto;html=1;" edge="1" parent="1" source="y1jBoSduMsLymryLVSX6-3" target="y1jBoSduMsLymryLVSX6-9">
          <mxGeometry relative="1" as="geometry">
            <mxPoint x="775" y="470" as="targetPoint" />
            <mxPoint x="895" y="240" as="sourcePoint" />
          </mxGeometry>
        </mxCell>
        <mxCell id="y1jBoSduMsLymryLVSX6-9" value="TinyUSB" style="rounded=0;whiteSpace=wrap;html=1;fillColor=#f8cecc;strokeColor=#b85450;gradientColor=#ea6b66;" vertex="1" parent="1">
          <mxGeometry x="835" y="310" width="120" height="60" as="geometry" />
        </mxCell>
        <mxCell id="y1jBoSduMsLymryLVSX6-27" value="" style="rounded=0;whiteSpace=wrap;html=1;fillColor=#e1d5e7;strokeColor=#9673a6;" vertex="1" parent="1">
          <mxGeometry x="890" y="620" width="480" height="260" as="geometry" />
        </mxCell>
        <mxCell id="y1jBoSduMsLymryLVSX6-28" value="Main Program Logic" style="rounded=0;whiteSpace=wrap;html=1;fillColor=#e1d5e7;strokeColor=none;" vertex="1" parent="1">
          <mxGeometry x="1250" y="620" width="120" height="60" as="geometry" />
        </mxCell>
        <mxCell id="y1jBoSduMsLymryLVSX6-33" style="edgeStyle=orthogonalEdgeStyle;rounded=0;orthogonalLoop=1;jettySize=auto;html=1;" edge="1" parent="1" source="y1jBoSduMsLymryLVSX6-29" target="y1jBoSduMsLymryLVSX6-30">
          <mxGeometry relative="1" as="geometry">
            <Array as="points">
              <mxPoint x="980" y="710" />
              <mxPoint x="1100" y="710" />
            </Array>
          </mxGeometry>
        </mxCell>
        <mxCell id="y1jBoSduMsLymryLVSX6-29" value="Keyboard Emulation" style="rounded=0;whiteSpace=wrap;html=1;fillColor=#ffcd28;gradientColor=#ffa500;strokeColor=#d79b00;" vertex="1" parent="1">
          <mxGeometry x="920" y="630" width="120" height="60" as="geometry" />
        </mxCell>
        <mxCell id="y1jBoSduMsLymryLVSX6-36" style="edgeStyle=orthogonalEdgeStyle;rounded=0;orthogonalLoop=1;jettySize=auto;html=1;entryX=0;entryY=0.5;entryDx=0;entryDy=0;" edge="1" parent="1" source="y1jBoSduMsLymryLVSX6-30" target="y1jBoSduMsLymryLVSX6-31">
          <mxGeometry relative="1" as="geometry" />
        </mxCell>
        <mxCell id="y1jBoSduMsLymryLVSX6-43" style="edgeStyle=orthogonalEdgeStyle;rounded=0;orthogonalLoop=1;jettySize=auto;html=1;entryX=0.5;entryY=0;entryDx=0;entryDy=0;" edge="1" parent="1" source="y1jBoSduMsLymryLVSX6-30" target="y1jBoSduMsLymryLVSX6-40">
          <mxGeometry relative="1" as="geometry" />
        </mxCell>
        <mxCell id="y1jBoSduMsLymryLVSX6-30" value="Script Execution Engine" style="rounded=0;whiteSpace=wrap;html=1;fillColor=#ffcd28;gradientColor=#ffa500;strokeColor=#d79b00;" vertex="1" parent="1">
          <mxGeometry x="1040" y="720" width="120" height="60" as="geometry" />
        </mxCell>
        <mxCell id="y1jBoSduMsLymryLVSX6-42" style="edgeStyle=orthogonalEdgeStyle;rounded=0;orthogonalLoop=1;jettySize=auto;html=1;" edge="1" parent="1" source="y1jBoSduMsLymryLVSX6-31" target="y1jBoSduMsLymryLVSX6-41">
          <mxGeometry relative="1" as="geometry" />
        </mxCell>
        <mxCell id="y1jBoSduMsLymryLVSX6-31" value="Payload Storage" style="rounded=0;whiteSpace=wrap;html=1;fillColor=#f5f5f5;gradientColor=#b3b3b3;strokeColor=#666666;" vertex="1" parent="1">
          <mxGeometry x="1150" y="800" width="120" height="60" as="geometry" />
        </mxCell>
        <mxCell id="y1jBoSduMsLymryLVSX6-39" value="Status Monitoring" style="rounded=0;whiteSpace=wrap;html=1;" vertex="1" parent="1">
          <mxGeometry x="668.5" y="920" width="183" height="30" as="geometry" />
        </mxCell>
        <mxCell id="y1jBoSduMsLymryLVSX6-40" value="Timing Controls" style="rounded=0;whiteSpace=wrap;html=1;" vertex="1" parent="1">
          <mxGeometry x="892" y="920" width="183" height="30" as="geometry" />
        </mxCell>
        <mxCell id="y1jBoSduMsLymryLVSX6-41" value="Flash Memory" style="rounded=0;whiteSpace=wrap;html=1;" vertex="1" parent="1">
          <mxGeometry x="1118.5" y="920" width="183" height="30" as="geometry" />
        </mxCell>
        <mxCell id="y1jBoSduMsLymryLVSX6-48" style="edgeStyle=orthogonalEdgeStyle;rounded=0;orthogonalLoop=1;jettySize=auto;html=1;exitX=0.5;exitY=1;exitDx=0;exitDy=0;entryX=0.5;entryY=0;entryDx=0;entryDy=0;" edge="1" parent="1" source="y1jBoSduMsLymryLVSX6-46" target="y1jBoSduMsLymryLVSX6-30">
          <mxGeometry relative="1" as="geometry" />
        </mxCell>
        <mxCell id="y1jBoSduMsLymryLVSX6-46" value="Storage Emulation" style="rounded=0;whiteSpace=wrap;html=1;fillColor=#ffcd28;gradientColor=#ffa500;strokeColor=#d79b00;" vertex="1" parent="1">
          <mxGeometry x="1118.5" y="630" width="120" height="60" as="geometry" />
        </mxCell>
      </root>
    </mxGraphModel>
  </diagram>
</mxfile>
